<svg width="512" height="512" viewBox="0 0 512 512" fill="none" xmlns="http://www.w3.org/2000/svg">
  <rect width="512" height="512" rx="120" fill="#05070D"/>
  <rect x="48" y="48" width="416" height="416" rx="96" fill="url(#paint0_linear)"/>
  <path d="M150 343V169h122v42h-72v31h65v40h-65v61h-50Z" fill="white"/>
  <path d="M288 348c-20 0-38-4-54-13v-47c16 12 34 18 53 18 16 0 25-5 25-15 0-6-3-10-9-14-6-3-17-8-33-14-15-6-27-13-35-23-8-9-12-21-12-35 0-17 7-31 21-42 14-10 32-15 55-15 18 0 34 3 49 10v45c-14-9-30-14-47-14-15 0-23 5-23 14 0 6 3 10 8 13 6 4 16 8 31 14 18 7 31 15 39 24 8 10 12 22 12 37 0 18-7 32-21 42-14 10-34 15-60 15Z" fill="white"/>
  <defs>
    <linearGradient id="paint0_linear" x1="75" y1="72" x2="431" y2="441" gradientUnits="userSpaceOnUse">
      <stop stop-color="#3B82F6"/>
      <stop offset="1" stop-color="#22D3EE"/>
    </linearGradient>
  </defs>
</svg>
